<?xml version="1.0" encoding="UTF-8" standalone="no"?>
<!-- Created with Inkscape (http://www.inkscape.org/) -->

<svg
   width="387.17334mm"
   height="304.65854mm"
   viewBox="0 0 387.17334 304.65854"
   version="1.1"
   id="svg5"
   xml:space="preserve"
   inkscape:export-filename="agbridge_black.svg"
   inkscape:export-xdpi="96"
   inkscape:export-ydpi="96"
   xmlns:inkscape="http://www.inkscape.org/namespaces/inkscape"
   xmlns:sodipodi="http://sodipodi.sourceforge.net/DTD/sodipodi-0.dtd"
   xmlns="http://www.w3.org/2000/svg"
   xmlns:svg="http://www.w3.org/2000/svg"><sodipodi:namedview
     id="namedview7"
     pagecolor="#ffffff"
     bordercolor="#000000"
     borderopacity="0.25"
     inkscape:showpageshadow="2"
     inkscape:pageopacity="0.0"
     inkscape:pagecheckerboard="true"
     inkscape:deskcolor="#d1d1d1"
     inkscape:document-units="mm"
     showgrid="false" /><defs
     id="defs2" /><g
     inkscape:label="Layer 1"
     inkscape:groupmode="layer"
     id="layer1"
     transform="translate(103.8529,-49.287353)"><path
       style="fill:#000000;stroke-width:0.352778"
       d="m 156.14432,353.59139 c -6.96241,-1.12095 -13.69503,-7.99945 -14.80655,-15.12736 -0.48402,-3.10394 -0.48563,-73.08165 -0.002,-76.19999 1.08697,-7.00499 6.78529,-13.11823 13.97295,-14.99038 1.77729,-0.46292 9.15522,-0.53185 56.92702,-0.53185 59.86487,0 56.57699,-0.10768 60.86832,1.99357 4.14154,2.02792 7.97577,6.58081 9.42643,11.19325 l 0.78997,2.51179 v 37.92361 37.92362 l -0.78157,2.48408 c -2.07942,6.60922 -7.96509,11.80045 -14.56426,12.84591 -2.86635,0.45409 -109.00174,0.42919 -111.83055,-0.0261 z m 112.3794,-10.50106 c 2.04357,-0.92823 3.92194,-3.26373 4.39611,-5.466 0.27326,-1.26925 0.35637,-12.65955 0.27957,-38.31863 l -0.10925,-36.5125 -0.75943,-1.41111 c -0.97578,-1.81314 -2.02822,-2.77921 -4.00307,-3.67452 -1.57568,-0.71435 -1.99168,-0.71975 -55.91528,-0.72549 -37.23484,-0.004 -54.75186,0.11198 -55.67566,0.36851 -1.78249,0.49497 -4.05925,2.59617 -4.8749,4.49901 -0.62629,1.46107 -0.65603,3.23204 -0.64864,38.63188 0.007,35.23081 0.0404,37.17173 0.65507,38.51172 0.35602,0.77611 1.1066,1.87039 1.66795,2.43173 0.56134,0.56134 1.65563,1.31195 2.43174,1.66797 1.34955,0.61906 3.80411,0.64731 56.26805,0.64731 52.53768,0 54.91745,-0.0275 56.28774,-0.64988 z M 170.9537,314.97252 c -3.48822,-3.36759 -3.47539,-3.42121 1.94756,-8.14224 1.55222,-1.35131 5.34291,-4.65892 8.42374,-7.35026 l 5.60151,-4.89333 -1.20237,-1.08008 c -0.66131,-0.59404 -4.80918,-4.15225 -9.21749,-7.90713 -6.51557,-5.54979 -8.01511,-6.99298 -8.01511,-7.71389 0,-1.34538 4.01667,-5.7451 5.2398,-5.73951 0.70798,0.003 3.53593,2.22912 11.69353,9.20403 5.91785,5.05986 11.51379,9.91521 12.43542,10.78966 2.13919,2.02966 2.1839,2.91117 0.24137,4.75906 -3.53202,3.35993 -23.1875,19.97517 -23.89636,20.20015 -0.65212,0.20697 -1.2177,-0.16289 -3.2516,-2.12646 z m 31.47506,1.54874 c -0.27046,-0.27047 -0.42333,-1.6463 -0.42333,-3.81 0,-2.16371 0.15287,-3.53954 0.42333,-3.81 0.3145,-0.3145 3.89179,-0.42334 13.91472,-0.42334 h 13.49139 l 0.54917,0.78406 c 0.37937,0.54166 0.54917,1.60799 0.54917,3.44928 0,1.84128 -0.1698,2.90762 -0.54917,3.44928 l -0.54917,0.78405 h -13.49139 c -10.02293,0 -13.60022,-0.10883 -13.91472,-0.42333 z m -298.636135,36.52625 c -0.377333,-0.37733 -0.27083,-6.86343 0.136803,-8.3313 0.467547,-1.68363 2.136465,-3.59957 4.002331,-4.59472 1.337402,-0.7133 2.028384,-0.77935 9.318812,-0.8908 l 7.874303,-0.12038 -0.113192,-9.58355 -0.113189,-9.58356 -0.97736,-1.9902 c -1.140308,-2.32201 -3.503609,-4.63445 -5.839834,-5.71415 -1.520793,-0.70284 -2.374353,-0.77608 -10.941258,-0.9387 l -9.291791,-0.17639 -0.85058,-0.98981 c -0.76746,-0.8931 -0.85057,-1.31156 -0.85057,-4.28245 0,-2.71576 0.11811,-3.43855 0.67414,-4.12547 l 0.67414,-0.83283 15.02448,-0.0992 15.024466,-0.0992 v -5.98622 c 0,-3.29242 -0.10397,-5.98622 -0.231044,-5.98622 -0.127074,0 -1.980474,0.56555 -4.118663,1.25678 -8.526484,2.75643 -15.302717,4.17627 -21.996896,4.60906 -4.743173,0.30665 -5.050623,0.087 -5.050623,-3.60779 0,-3.61897 0.5086,-4.12968 5.082887,-5.10396 7.264389,-1.54724 15.462048,-4.99322 21.365555,-8.98124 1.848707,-1.24887 3.718472,-2.57692 4.155034,-2.95122 l 0.79375,-0.68056 v -15.04221 c 0,-16.37192 0.04342,-16.75545 1.980142,-17.49178 0.488407,-0.1857 3.826764,-0.33763 7.418571,-0.33763 h 6.530562 l 1.031194,1.0312 1.031198,1.03119 v 8.84659 c 0,5.43856 0.13093,8.84658 0.33987,8.84658 0.597824,0 4.954231,-4.27938 8.737497,-8.58301 8.47271,-9.63807 15.627791,-20.77037 23.506321,-36.57255 7.423326,-14.88916 12.5499449,-27.40125 30.2098486,-73.73055 C 14.667003,124.63542 19.66531,112.93333 24.904529,102.4557 33.19444,85.877157 40.019272,76.061867 49.517031,67.058647 64.625173,52.73718 85.229007,46.508204 104.46237,50.447501 c 13.8169,2.829919 27.82996,12.006056 38.47895,25.197086 10.06466,12.4672 17.91125,27.365483 30.84285,58.561113 2.3727,5.72382 6.42499,15.48695 9.00508,21.69584 16.60335,39.95534 28.13822,61.47186 41.98505,78.31666 1.59495,1.94028 3.31569,3.91264 3.82387,4.38302 0.50814,0.47039 0.92392,0.98968 0.92392,1.15399 0,0.16431 -3.13369,0.2557 -6.96376,0.20309 l -6.96379,-0.0957 -2.38175,-2.97195 c -9.49273,-11.84499 -20.65678,-31.52118 -30.4398,-53.64889 -0.64337,-1.4552 -1.98508,-4.47145 -2.98158,-6.70277 -1.82116,-4.07784 -6.93993,-16.30624 -13.95496,-33.33751 -13.315,-32.32639 -20.51443,-46.641643 -29.4618,-58.581423 -3.34784,-4.46751 -10.52916,-11.69262 -14.61014,-14.69923 -3.7687,-2.77655 -10.22324,-6.21346 -14.11329,-7.51505 -12.030918,-4.025479 -24.997971,-3.095091 -36.702728,2.63342 -9.14165,4.47409 -16.065355,10.46883 -23.471163,20.322 -9.147675,12.17066 -18.081095,30.570323 -29.624238,61.015333 -0.735648,1.94028 -2.211158,5.82966 -3.278907,8.64306 -1.067749,2.8134 -3.052844,8.05215 -4.411317,11.64167 -13.538384,35.77264 -22.627022,55.75176 -33.21958,73.025 -1.606293,2.61937 -3.233861,5.27843 -3.616816,5.90903 -0.382954,0.63059 -0.595693,1.14652 -0.472754,1.14652 0.566057,0 10.606836,-8.63915 19.0725527,-16.41015 13.2563763,-12.16853 22.3797643,-19.54114 31.7500003,-25.6572 17.840932,-11.64497 35.191372,-18.36447 55.386111,-21.45001 6.327281,-0.96673 20.977529,-1.33942 27.626169,-0.70278 27.45201,2.62869 51.00887,13.31604 75.09817,34.07078 4.06171,3.49948 23.07377,22.3104 23.33204,23.0852 0.0802,0.24054 -2.97836,0.36139 -9.14689,0.36139 h -9.26736 l -6.38878,-6.4382 c -10.08477,-10.16278 -17.46169,-16.19403 -26.95953,-22.04168 -13.85687,-8.53143 -27.58147,-13.44286 -44.30772,-15.85577 -5.08067,-0.73293 -19.194175,-0.83225 -24.694433,-0.17377 -22.314746,2.67145 -41.060867,10.30376 -60.112726,24.47435 -6.849519,5.09461 -12.045075,9.57329 -24.06045362,20.74062 C -20.373052,259.84781 -33.627121,269.72315 -50.583451,278.56807 l -3.704167,1.93221 -0.09361,10.10826 -0.0936,10.10827 h 37.59376 c 39.972904,0 39.181557,-0.0318 39.809032,1.60331 0.373842,0.97421 0.240711,6.43004 -0.179402,7.35208 -0.465391,1.02142 -1.578564,1.50972 -3.963289,1.73851 -2.012911,0.19312 -3.335789,1.05665 -4.192485,2.73673 -0.551116,1.08082 -0.61687,2.47774 -0.617361,13.1159 l -5.47e-4,11.90625 h 3.816527 c 4.738214,0 7.000349,0.60984 8.749157,2.35864 1.821589,1.8216 2.332182,3.30976 2.522615,7.35227 0.133897,2.8424 0.06397,3.6225 -0.355967,3.97101 -0.405285,0.33638 -6.413923,0.41342 -26.7656634,0.34325 l -26.2430566,-0.0905 0.01139,-3.70416 c 0.01658,-5.38135 1.014674,-7.59496 4.178113,-9.26629 1.302371,-0.68808 2.113644,-0.78257 7.73695,-0.9011 l 6.2820187,-0.13242 -0.1084086,-9.75496 c -0.1006757,-9.05962 -0.1614558,-9.86811 -0.8527027,-11.34246 -0.9989537,-2.13063 -3.4149304,-4.4707 -5.7820874,-5.6004 l -1.940277,-0.92599 -13.377496,-0.10429 c -12.622265,-0.0984 -13.511219,-0.0637 -15.746239,0.6152 -2.988208,0.90764 -5.525555,3.08396 -6.930027,5.94401 l -0.987905,2.01175 -0.11309,9.57161 -0.113093,9.5716 4.699204,0.14994 c 5.039106,0.16077 6.612114,0.62781 8.273909,2.45655 1.692886,1.86295 2.031362,3.07665 2.051057,7.35447 l 0.0187,4.05694 -29.48434,0.0902 c -16.216387,0.0496 -29.591074,-0.0166 -29.721527,-0.14701 z m 59.735035,-63.74022 v -4.37025 l 2.910416,-1.68285 c 1.600729,-0.92558 4.353659,-2.61388 6.117618,-3.75179 1.76396,-1.1379 3.314753,-2.06892 3.446209,-2.06892 0.131452,0 0.196335,3.61156 0.144184,8.02569 l -0.09482,8.0257 -6.261806,0.0963 -6.261805,0.0963 z m 22.107408,4.11878 c -0.129353,-0.12935 -0.235186,-5.3579 -0.235186,-11.619 v -11.38382 l 2.734027,-2.20924 c 1.503716,-1.21509 4.1627774,-3.41648 5.9090274,-4.892 1.7462499,-1.47551 3.3734374,-2.80279 3.6159722,-2.94951 0.3503365,-0.21194 0.4409722,3.18169 0.4409722,16.51099 v 16.77777 h -6.1148136 c -3.3631502,0 -6.2206502,-0.10584 -6.3499992,-0.23519 z M 7.6248807,272.51442 v -21.14684 l 5.8453273,-5.3115 c 3.214931,-2.92132 5.993056,-5.31149 6.173611,-5.31149 0.198353,0 0.328285,7.31855 0.328285,18.49077 v 18.49077 l -1.575256,4.02871 c -0.866394,2.21579 -2.090229,5.8012 -2.719637,7.96757 l -1.14438,3.93885 H 11.078858 7.6248807 Z m 21.5868393,-25.94958 -0.05276,-14.28809 2.021156,-1.60359 c 2.726482,-2.1632 11.149316,-7.71899 15.142556,-9.98819 20.718695,-11.77362 45.593832,-15.81309 68.723038,-11.15993 13.20905,2.65741 26.80067,8.89283 39.16263,17.96663 4.71988,3.46443 7.27326,5.8914 8.92774,8.48573 0.86781,1.36078 1.89984,2.83132 2.29341,3.26789 l 0.71559,0.79375 h -3.87726 c -4.64891,0 -7.16225,0.42273 -10.77292,1.81195 l -2.70914,1.04236 -3.64086,-3.03874 c -11.3539,-9.47621 -23.85211,-15.32253 -37.68883,-17.62979 -4.72852,-0.78847 -14.150274,-1.06524 -18.868691,-0.55427 -14.229038,1.5409 -26.965847,6.87915 -38.629167,16.19026 -6.155873,4.91438 -13.747915,13.24327 -18.455019,20.24616 -1.006337,1.49716 -1.921732,2.72747 -2.034211,2.73403 -0.11248,0.007 -0.228248,-6.41772 -0.257264,-14.27616 z"
       id="path738" /></g></svg>
